<?xml version="1.0" encoding="UTF-8" standalone="no"?>
<!-- Created with Inkscape (http://www.inkscape.org/) -->

<svg
   width="184mm"
   height="116mm"
   viewBox="0 0 184 116"
   version="1.1"
   id="svg5"
   inkscape:version="1.1.2 (0a00cf5339, 2022-02-04)"
   sodipodi:docname="logo-traineehub.svg"
   xmlns:inkscape="http://www.inkscape.org/namespaces/inkscape"
   xmlns:sodipodi="http://sodipodi.sourceforge.net/DTD/sodipodi-0.dtd"
   xmlns="http://www.w3.org/2000/svg"
   xmlns:svg="http://www.w3.org/2000/svg">
  <sodipodi:namedview
     id="namedview7"
     pagecolor="#ffffff"
     bordercolor="#666666"
     borderopacity="1.0"
     inkscape:pageshadow="2"
     inkscape:pageopacity="0.0"
     inkscape:pagecheckerboard="0"
     inkscape:document-units="mm"
     showgrid="false"
     inkscape:zoom="0.52249848"
     inkscape:cx="112.91899"
     inkscape:cy="298.56546"
     inkscape:window-width="1596"
     inkscape:window-height="789"
     inkscape:window-x="0"
     inkscape:window-y="90"
     inkscape:window-maximized="1"
     inkscape:current-layer="layer1"
     showguides="true"
     inkscape:guide-bbox="true"
     width="209mm" />
  <defs
     id="defs2" />
  <g
     inkscape:label="Camada 1"
     inkscape:groupmode="layer"
     id="layer1"
     style="display:inline">
    <path
       style="fill:#5a5a5a;fill-opacity:1;stroke:#5a5a5a;stroke-width:0.264583px;stroke-linecap:butt;stroke-linejoin:miter;stroke-opacity:1"
       d="M 7.8756925,32.472269 8.2741375,82.954349 51.00921,107.18397 94.26334,82.387949 96.75332,83.654979 50.996672,109.81906 6.2136865,84.030009 6.0619365,31.480109 50.96419,5.6828148 95.32519,30.725349 93.00521,31.458789 51.063891,7.8657648 Z"
       id="path146"
       sodipodi:nodetypes="ccccccccccccc" />
    <path
       style="fill:#5a5a5a;fill-opacity:1;stroke:#5a5a5a;stroke-width:0.264583px;stroke-linecap:butt;stroke-linejoin:miter;stroke-opacity:1"
       d="M 51.095654,3.9540248 96.22271,30.008149 99.3935,28.825679 50.632765,0.67364482 0.40358451,29.673479 v 56.75078 L 51.104374,115.69637 101.4205,86.646339 97.91037,84.619769 51.147094,111.61856 4.5812425,84.733759 v -53.99296 z"
       id="path1620" />
    <path
       style="fill:none;fill-opacity:1;stroke:#5a5a5a;stroke-width:1.065;stroke-linecap:butt;stroke-linejoin:miter;stroke-miterlimit:4;stroke-dasharray:none;stroke-opacity:1"
       d="m 35.15346,46.022889 c 1.398156,-0.4388 10.616761,-0.71101 12.076219,-0.52888 1.636618,0.20423 5.017344,5.12749 5.017344,5.12749 1.48231,-0.17394 1.770581,-3.79545 3.486835,-3.96214 1.716254,-0.16669 3.948768,0.37906 4.017729,3.08917 0.06896,2.71011 -5.499417,9.17375 -8.518575,7.26819 -2.378396,-1.50114 -2.029763,-4.89634 -3.582844,-4.50704 0,0 1.898353,5.12995 -0.344983,7.21224 -2.243336,2.08229 -11.021371,1.62786 -11.140371,-0.29672 l -0.305859,-4.94662 c 0,0 -0.124187,4.11067 -1.577358,4.53231 -1.453171,0.42164 -2.797154,-0.23522 -3.436326,-2.74024 -0.639172,-2.50502 2.910033,-9.80896 4.308189,-10.24776 z"
       id="path3493"
       sodipodi:nodetypes="zsszzsszsczzz" />
    <path
       style="fill:none;stroke:#5a5a5a;stroke-width:1.065;stroke-linecap:butt;stroke-linejoin:miter;stroke-miterlimit:4;stroke-dasharray:none;stroke-opacity:1"
       d="m 37.451479,40.062529 c -0.236762,-1.91631 1.426634,-4.1157 3.16895,-4.00104 3.305508,0.21753 4.255816,2.43493 4.077639,4.4353 -0.164273,1.84428 -2.224346,3.1111 -4.062239,2.88638 -1.63401,-0.19979 -2.982498,-1.68689 -3.18435,-3.32064 z"
       id="path6779"
       sodipodi:nodetypes="sssss" />
    <path
       style="fill:none;stroke:#5a5a5a;stroke-width:0.665;stroke-linecap:butt;stroke-linejoin:miter;stroke-miterlimit:4;stroke-dasharray:none;stroke-opacity:1"
       d="m 34.981946,67.960039 c 0.0267,-1.45237 1.123106,-2.29826 2.291927,-2.29015 1.283606,0.009 2.296312,1.14183 2.345468,2.26563 0.05438,1.24332 -0.571175,2.68978 -2.221675,2.7089 -1.646068,0.0191 -2.441572,-1.27813 -2.41572,-2.68438 z"
       id="path6779-6"
       sodipodi:nodetypes="sssss" />
    <path
       style="fill:none;stroke:#5a5a5a;stroke-width:1.065;stroke-linecap:butt;stroke-linejoin:miter;stroke-miterlimit:4;stroke-dasharray:none;stroke-opacity:1"
       d="m 45.791274,34.939579 c 26.251659,0 26.251659,0 26.251659,0 v 24.28807 H 55.679089 72.18376"
       id="path7863"
       sodipodi:nodetypes="ccccc" />
    <path
       style="fill:none;stroke:#5a5a5a;stroke-width:0.665;stroke-linecap:round;stroke-linejoin:miter;stroke-miterlimit:4;stroke-dasharray:none;stroke-opacity:1"
       d="m 31.84674,75.940609 c 0,0 0.688184,-4.65158 5.721835,-4.74189 4.987174,-0.0895 5.870753,4.69472 5.870753,4.69472"
       id="path8871"
       sodipodi:nodetypes="csc" />
    <path
       style="fill:none;stroke:#5a5a5a;stroke-width:0.665;stroke-linecap:butt;stroke-linejoin:miter;stroke-miterlimit:4;stroke-dasharray:none;stroke-opacity:1"
       d="m 47.632868,67.912869 c 0.0267,-1.45237 1.123106,-2.29826 2.291927,-2.29015 1.283606,0.009 2.296312,1.14183 2.345468,2.26563 0.05438,1.24332 -0.571175,2.68978 -2.221675,2.7089 -1.646068,0.0191 -2.441572,-1.27813 -2.41572,-2.68438 z"
       id="path6779-6-6"
       sodipodi:nodetypes="sssss" />
    <path
       style="fill:none;stroke:#5a5a5a;stroke-width:0.665;stroke-linecap:round;stroke-linejoin:miter;stroke-miterlimit:4;stroke-dasharray:none;stroke-opacity:1"
       d="m 44.497662,75.893439 c 0,0 0.688184,-4.65158 5.721835,-4.74189 4.987174,-0.0895 5.870753,4.69472 5.870753,4.69472"
       id="path8871-0"
       sodipodi:nodetypes="csc" />
    <path
       style="fill:none;stroke:#5a5a5a;stroke-width:0.665;stroke-linecap:butt;stroke-linejoin:miter;stroke-miterlimit:4;stroke-dasharray:none;stroke-opacity:1"
       d="m 60.28379,67.865699 c 0.0267,-1.45237 1.123106,-2.29826 2.291927,-2.29015 1.283606,0.009 2.296312,1.14183 2.345468,2.26563 0.05438,1.24332 -0.571175,2.68978 -2.221675,2.7089 -1.646068,0.0191 -2.441572,-1.27813 -2.41572,-2.68438 z"
       id="path6779-6-6-7"
       sodipodi:nodetypes="sssss" />
    <path
       style="fill:none;stroke:#5a5a5a;stroke-width:0.665;stroke-linecap:round;stroke-linejoin:miter;stroke-miterlimit:4;stroke-dasharray:none;stroke-opacity:1"
       d="m 57.148584,75.846269 c 0,0 0.688184,-4.65158 5.721835,-4.74189 4.987174,-0.0895 5.870753,4.69472 5.870753,4.69472"
       id="path8871-0-3"
       sodipodi:nodetypes="csc" />
    <path
       style="fill:none;stroke:#5a5a5a;stroke-width:2.206;stroke-linecap:round;stroke-linejoin:miter;stroke-miterlimit:4;stroke-dasharray:none;stroke-opacity:1"
       d="m 93.13944,43.098999 10.89134,0.0903 -5.63302,-0.0157 0.15881,11.28038"
       id="path16616"
       sodipodi:nodetypes="cccc" />
    <path
       style="fill:none;stroke:#5a5a5a;stroke-width:2.206;stroke-linecap:round;stroke-linejoin:miter;stroke-miterlimit:4;stroke-dasharray:none;stroke-opacity:1"
       d="m 108.33662,54.428799 v -11.23043 c 0,0 6.2974,-0.62482 8.8174,1.25869 0.78778,0.5888 1.34951,2.71646 0.4807,4.22978 -1.25435,2.18486 -9.43237,1.37839 -9.43237,1.37839 0,0 3.22232,0.14002 4.87133,0.37002 1.64902,0.23 4.845,3.89192 4.845,3.89192"
       id="path17030"
       sodipodi:nodetypes="ccssczc" />
    <path
       style="fill:none;stroke:#5a5a5a;stroke-width:2.206;stroke-linecap:round;stroke-linejoin:miter;stroke-miterlimit:4;stroke-dasharray:none;stroke-opacity:1"
       d="m 123.23307,54.835919 c 0,0 -0.4236,-5.42899 0.8662,-7.40451 1.92475,-2.94807 7.82341,-5.03765 8.89432,-4.09317 v 12.1863 -4.81936 l -9.29391,-0.0266"
       id="path19520"
       sodipodi:nodetypes="cscccc" />
    <path
       style="fill:none;stroke:#5a5a5a;stroke-width:2.206;stroke-linecap:round;stroke-linejoin:miter;stroke-miterlimit:4;stroke-dasharray:none;stroke-opacity:1"
       d="m 138.31252,43.097149 -0.0226,11.94872"
       id="path20552"
       sodipodi:nodetypes="cc" />
    <path
       style="fill:none;stroke:#5a5a5a;stroke-width:2.206;stroke-linecap:round;stroke-linejoin:miter;stroke-miterlimit:4;stroke-dasharray:none;stroke-opacity:1"
       d="m 143.18633,55.160899 -0.014,-11.90944 c -0.36911,-3.18883 7.62125,12.69506 9.84215,11.92931 1.46958,-0.50671 0.67987,-12.41974 0.67987,-12.41974"
       id="path20620"
       sodipodi:nodetypes="ccsc" />
    <path
       style="fill:none;stroke:#5a5a5a;stroke-width:2.206;stroke-linecap:round;stroke-linejoin:miter;stroke-miterlimit:4;stroke-dasharray:none;stroke-opacity:1"
       d="m 168.97031,43.403079 c -0.85701,-0.1906 -10.63982,0 -10.63982,0 v 11.52166 l 10.94217,0.13045 -11.00029,-0.13045 0.0777,-6.33621 9.85603,0.0228"
       id="path21941"
       sodipodi:nodetypes="ccccccc" />
    <path
       style="fill:none;stroke:#5a5a5a;stroke-width:2.206;stroke-linecap:round;stroke-linejoin:miter;stroke-miterlimit:4;stroke-dasharray:none;stroke-opacity:1"
       d="m 183.38317,43.353939 c -0.85701,-0.19572 -10.63982,0 -10.63982,0 v 11.83107 l 10.94217,0.13395 -11.00029,-0.13395 0.0777,-6.50637 9.85603,0.0234"
       id="path21941-0"
       sodipodi:nodetypes="ccccccc" />
    <path
       style="fill:none;stroke:#5a5a5a;stroke-width:2.206;stroke-linecap:round;stroke-linejoin:miter;stroke-miterlimit:4;stroke-dasharray:none;stroke-opacity:1"
       d="m 94.22042,73.425889 c 0,-12.09879 0,-12.09879 0,-12.09879 v 6.31577 h 9.65335 v -6.18887 12.26215"
       id="path22858" />
    <path
       style="fill:none;stroke:#5a5a5a;stroke-width:2.206;stroke-linecap:round;stroke-linejoin:miter;stroke-miterlimit:4;stroke-dasharray:none;stroke-opacity:1"
       d="m 109.63523,61.539029 c 0,11.57716 0,11.92326 0,11.92326 h 10.61313 v -11.77105"
       id="path23024" />
    <path
       style="fill:none;stroke:#5a5a5a;stroke-width:2.206;stroke-linecap:round;stroke-linejoin:miter;stroke-miterlimit:4;stroke-dasharray:none;stroke-opacity:1"
       d="m 123.53341,73.447449 v -11.67655 h 10.94595 l -0.006,3.01799 c -0.0948,3.84496 -10.91691,3.24474 -10.91691,3.24474 0,0 10.9239,-0.31686 10.92675,1.51993 l 0.006,3.93308 z"
       id="path23285"
       sodipodi:nodetypes="cccccscc" />
  </g>
</svg>
